<?xml version="1.0" standalone="no"?>
<!DOCTYPE svg PUBLIC "-//W3C//DTD SVG 20010904//EN"
 "http://www.w3.org/TR/2001/REC-SVG-20010904/DTD/svg10.dtd">
<svg version="1.0" xmlns="http://www.w3.org/2000/svg"
 width="238.000000pt" height="238.000000pt" viewBox="0 0 238.000000 238.000000"
 preserveAspectRatio="xMidYMid meet">
<metadata>
Created by potrace 1.11, written by Peter Selinger 2001-2013
</metadata>
<g transform="translate(0.000000,238.000000) scale(0.100000,-0.100000)"
fill="#000000" stroke="none">
<path d="M1168 2310 c7 -89 3 -93 -90 -113 -47 -11 -92 -15 -103 -11 -47 18
-97 57 -112 89 -9 19 -20 35 -25 35 -16 0 -7 -68 15 -112 l23 -46 -37 -6 c-20
-3 -42 -13 -49 -22 -8 -8 -27 -22 -42 -30 -28 -14 -31 -14 -66 12 -20 15 -50
41 -65 57 -15 16 -30 27 -33 24 -4 -4 12 -82 32 -148 2 -9 -11 -28 -36 -48
l-41 -33 -31 31 c-17 17 -58 39 -92 51 l-61 20 48 -41 c26 -23 54 -54 62 -69
15 -29 13 -35 -64 -160 -7 -12 -15 -9 -45 19 -20 19 -36 32 -36 28 0 -3 5 -28
11 -56 l10 -49 -43 -40 c-24 -22 -56 -65 -73 -95 l-29 -56 -44 5 c-24 2 -61 8
-82 13 -35 8 -37 7 -28 -8 6 -9 35 -36 64 -61 l54 -45 -5 -53 c-3 -30 -8 -59
-12 -65 -3 -6 -6 -62 -5 -124 0 -62 -3 -113 -6 -113 -4 0 -25 12 -47 25 -49
30 -73 33 -27 4 28 -19 83 -99 67 -99 -3 0 5 -19 19 -43 33 -57 69 -178 57
-190 -5 -5 -19 -14 -32 -21 -12 -6 -34 -27 -48 -45 -26 -35 -15 -35 24 0 11 9
41 20 66 24 43 6 47 5 52 -17 4 -12 7 -32 7 -43 0 -11 25 -45 56 -76 l56 -57
-12 -38 c-7 -22 -23 -60 -37 -86 -26 -53 -24 -56 15 -30 15 10 45 31 67 45
l40 27 45 -44 c25 -23 62 -56 83 -71 24 -17 36 -34 32 -42 -3 -8 -8 -27 -11
-41 -4 -22 -2 -20 11 8 20 44 16 43 58 25 20 -8 59 -20 87 -26 44 -9 56 -17
89 -62 21 -29 51 -73 66 -99 15 -27 28 -48 29 -48 1 0 3 26 4 57 1 31 4 58 6
60 2 2 48 -4 102 -13 125 -22 147 -38 142 -106 l-3 -47 27 26 c28 27 40 52 42
88 2 31 71 29 97 -3 31 -40 107 -122 113 -122 3 0 -4 21 -15 48 -29 65 -38 98
-30 110 6 10 72 42 166 80 47 19 121 37 137 34 18 -4 164 75 155 84 -1 1 -28
-4 -60 -11 -31 -7 -57 -12 -57 -10 0 2 17 14 38 26 36 23 82 66 82 78 1 7 78
90 103 110 16 13 22 10 53 -20 l35 -34 -15 36 c-17 41 -12 98 13 143 29 54
112 160 139 179 25 17 25 18 5 14 -28 -6 -29 2 -3 108 10 44 16 83 13 87 -2 5
23 21 58 37 34 15 58 31 52 34 -5 3 -32 9 -59 12 -40 6 -50 11 -49 25 3 39
-15 182 -25 201 -10 18 -6 22 40 41 64 27 64 27 -33 43 -59 9 -67 23 -67 116
0 67 -2 74 -30 101 -16 15 -30 34 -31 41 -3 42 -8 57 -32 89 -33 43 -33 47 -2
108 14 27 25 51 25 52 0 2 -13 3 -28 2 -74 -2 -148 14 -187 41 -52 35 -127 69
-194 86 -51 13 -91 45 -91 74 0 7 11 24 25 37 31 31 15 42 -39 27 -27 -7 -42
-20 -58 -50 -22 -39 -24 -40 -66 -35 -24 3 -79 18 -123 34 l-81 27 -30 73
c-16 39 -33 72 -36 72 -4 0 -5 -23 -4 -50z m-72 -353 c4 -4 7 -28 5 -54 -2
-47 -2 -47 18 -29 12 11 26 33 32 51 l12 33 81 -5 c120 -8 126 -12 127 -78 1
-30 3 -59 4 -65 1 -5 4 -20 5 -32 1 -16 5 -10 11 17 7 32 39 105 45 105 1 0
19 -7 40 -16 60 -25 95 -54 90 -72 -3 -10 -8 -30 -11 -47 l-7 -30 21 33 c18
27 25 31 36 22 7 -6 17 -26 21 -43 3 -18 17 -50 30 -73 31 -53 30 -76 -6 -152
-16 -35 -24 -60 -17 -56 6 4 28 18 48 30 l37 23 12 -29 c6 -16 23 -43 36 -61
13 -18 24 -35 24 -39 0 -3 -15 -14 -34 -24 -18 -10 -44 -32 -56 -48 -22 -29
-13 -30 20 -2 9 7 29 15 45 18 30 5 31 5 32 -37 0 -23 5 -66 11 -95 l9 -53
-45 6 c-25 3 -50 9 -56 12 -15 9 33 -45 72 -80 30 -27 32 -33 30 -89 -1 -33
-7 -62 -13 -64 -6 -3 -33 0 -60 5 -28 5 -52 8 -53 6 -3 -3 37 -42 100 -97 21
-18 20 -52 -4 -145 -12 -50 -22 -53 -54 -17 -27 29 -28 25 -12 -45 11 -50 11
-51 -25 -97 -56 -72 -66 -77 -112 -51 -22 13 -45 33 -51 46 -22 44 -34 48 -34
11 0 -19 13 -57 30 -86 l29 -53 -31 -26 c-46 -39 -99 -63 -132 -59 -15 1 -29
4 -30 6 -1 2 -15 36 -30 75 -15 40 -31 75 -34 77 -4 2 -7 -24 -7 -57 0 -96 -8
-114 -54 -122 -59 -10 -181 4 -223 26 -62 32 -107 77 -119 121 -13 51 -6 82
23 96 30 14 4 15 -45 1 -20 -5 -44 -21 -53 -34 -21 -31 -34 -32 -34 -1 0 15
-17 41 -46 70 -49 49 -94 122 -94 154 0 15 17 27 64 48 36 15 63 31 60 35 -2
4 -31 10 -64 14 -33 4 -62 11 -65 15 -3 5 -8 28 -11 52 -3 24 -10 64 -15 90
-6 26 -8 51 -5 57 4 5 32 15 64 22 l57 12 -40 14 c-22 8 -56 17 -75 20 -43 6
-39 3 -43 44 -5 49 19 91 61 112 21 9 48 26 62 37 l25 19 -45 -13 c-46 -14
-90 -7 -90 14 0 15 0 17 -10 49 -8 28 -5 32 38 60 52 34 52 35 3 21 -32 -9
-33 -9 -26 18 4 15 8 45 9 67 4 82 42 103 86 47 11 -14 22 -23 25 -21 2 3 -4
36 -13 74 -26 101 -20 120 60 178 37 27 72 46 78 42 6 -4 25 -31 42 -61 17
-30 33 -53 36 -50 6 7 10 42 11 114 l1 53 50 23 c49 23 101 28 116 13z m749
-172 c33 -33 73 -86 89 -117 l28 -57 -26 -57 c-14 -31 -26 -58 -26 -60 0 -2
15 5 33 16 17 11 35 20 39 20 5 0 16 -47 20 -85 1 -2 9 -37 18 -77 l18 -73
-41 -42 -40 -42 34 6 c19 2 39 6 44 6 18 3 17 -130 0 -191 -15 -51 -84 -197
-90 -190 -2 2 0 35 4 73 3 39 4 89 0 113 -6 46 0 58 41 86 l25 17 -37 -6 c-36
-7 -37 -7 -43 32 -4 21 -10 52 -14 68 -5 17 -9 68 -10 114 -1 47 -9 103 -17
125 -9 23 -18 48 -20 57 -4 11 6 24 30 38 20 13 36 24 36 26 0 1 -17 -1 -37
-6 -58 -13 -58 -13 -88 48 -22 46 -95 245 -95 261 0 10 72 -49 125 -103z
m-1348 -92 c-17 -30 -70 -154 -84 -196 -15 -45 -15 -60 -3 -131 19 -118 17
-177 -6 -217 l-20 -34 42 -170 c46 -187 78 -267 132 -334 28 -35 31 -41 13
-32 -42 23 -126 117 -157 176 -34 65 -71 171 -62 180 3 3 17 1 32 -5 l27 -10
-19 27 c-11 16 -30 38 -41 50 -23 24 -28 45 -37 153 -11 141 -12 138 36 146
36 6 38 8 23 20 -10 7 -26 14 -37 14 -16 0 -18 5 -12 38 3 20 6 58 6 85 0 43
2 47 25 47 17 0 25 -6 26 -17 0 -10 13 18 28 63 31 90 36 100 64 132 20 22 32
29 24 15z"/>
</g>
</svg>
